<svg xmlns="http://www.w3.org/2000/svg" width="186.327" height="493.11"><path d="M127.97.12a.64.64 0 0 0-.623-.069l-35.07 14.152-4.154 1.724 12.553 5.082h.014v.007l3.358 11.722a.69.69 0 0 0 1.156.3l6.993-7.155 9.437 3.71c.39.16.83.13 1.194-.078s.614-.572.675-.988L128.267.84a.68.68 0 0 0-.297-.72zm-20.336 23.908l.014-.048.02.007z" fill="#d9e2ff"/><path d="M112.197 25.883l-6.993 7.152a.76.76 0 0 0 .173-.312l2.257-8.7.035-.042 4.343 1.828z" fill="#7d7ad0"/><path d="M128.02.157l-20.387 23.87-2.257 8.7a.76.76 0 0 1-.173.312.69.69 0 0 1-1.156-.3l-3.365-11.736z" fill="#94a5e8"/><path d="M95.15 51.746l4-8m-15 26l4-8m-15 26l3-6m8 10l6 3m13 7l6 3m13 8l4 4m17 14l-4-4m18 20l-4-4m16 22l-3-5m11 25l-1-5m7 27l-1-7m3 27v-5m-1 27l1-5m-4 26l1-5m-6 25l1-4m-10 25l3-4m-11 24l2-5m-12 25l3-6m-14 25l3-5m-15 22l3-5m-16 23l4-6m-19 22l4-6m-17 18l4-6m-22 23l3-6m-22 19l4-6m-24 19l4-6m-23 22l4-7m51-401l5 2m-26-8l6 1m-26-6h5m-27-4l6 1m54 34l3-5m-17 24l4-6m-17 21l4-5m-19 21l4-4m-19 18l4-3" fill="none" stroke="#e7e6e9" stroke-linecap="round" stroke-width="2"/></svg>