<svg xmlns="http://www.w3.org/2000/svg" width="48" height="48" xmlns:v="https://vecta.io/nano"><g fill="#fff" stroke="#7b7f98"><circle cx="24" cy="24" r="24" stroke="none"/><circle cx="24" cy="24" r="23.75" fill="none" stroke-width=".5"/></g><g fill="#7b7f98"><path d="M31.025 21.037a5.2 5.2 0 0 0-.33-1.736 3.48 3.48 0 0 0-.831-1.264c-.358-.363-.8-.644-1.27-.824a5.26 5.26 0 0 0-1.736-.331l-2.954-.045-2.95.042a5.25 5.25 0 0 0-1.737.332 3.5 3.5 0 0 0-1.27.825 3.51 3.51 0 0 0-.826 1.262 5.21 5.21 0 0 0-.333 1.731l-.044 2.944.042 2.94a5.2 5.2 0 0 0 .333 1.731 3.52 3.52 0 0 0 .828 1.266c.358.362.8.643 1.267.822a5.26 5.26 0 0 0 1.737.332l2.95.042 2.95-.042c.595-.01 1.184-.12 1.742-.328a3.66 3.66 0 0 0 2.1-2.088c.208-.554.32-1.14.333-1.73l.042-2.94-.036-2.94zm-1.3 5.826a3.9 3.9 0 0 1-.246 1.324 2.37 2.37 0 0 1-1.36 1.355 3.95 3.95 0 0 1-1.329.245l-2.893.042c-1.9 0-2.14-.008-2.893-.042-.454-.006-.903-.1-1.328-.25a2.36 2.36 0 0 1-1.357-1.352 3.94 3.94 0 0 1-.246-1.324l-.042-2.882.042-2.882a3.9 3.9 0 0 1 .246-1.324 2.17 2.17 0 0 1 .537-.82 2.22 2.22 0 0 1 .822-.532 3.97 3.97 0 0 1 1.33-.245l2.894-.04 2.893.042a3.93 3.93 0 0 1 1.33.245 2.2 2.2 0 0 1 .822.532c.237.23.42.5.534.82a3.94 3.94 0 0 1 .246 1.324l.042 2.882-.042 2.88zm-5.823-6.12a3.23 3.23 0 1 0 3.255 3.23c-.007-1.8-1.464-3.237-3.255-3.23zm0 5.325a2.1 2.1 0 1 1 1.493-.611 2.1 2.1 0 0 1-1.493.611zm0 0"/><path d="M28.63 20.228c0 .532-.43.963-.963.963s-.963-.43-.963-.963.43-.963.963-.963c.255 0 .5.1.68.282s.282.426.282.68zm0 0"/></g></svg>