<svg xmlns="http://www.w3.org/2000/svg" width="199.88" height="289.882" viewBox="0 0 199.88 289.882">
  <g id="Group_199" data-name="Group 199" transform="translate(301.619 -96.637)">
    <path id="Path_127" data-name="Path 127" d="M130.407,644.866c-44.014-16.1-64.793-61.84-74.49-105.227-1.62-7.24-4.365-14.61-2.614-21.772s8.808-13.565,16.1-12.232c6.038,1.124,9.984,6.717,14.323,11.082a43.7,43.7,0,0,0,21.2,11.709c5.227,1.176,11.343,1.15,15.29-2.614,5.384-5.018,3.947-13.774,2.039-20.909L111.8,465.071a67.51,67.51,0,0,1-3.267-21.772c.5-7.344,3.842-14.924,10.246-18.609s15.917-1.934,19.158,4.679a67.3,67.3,0,0,1,2.614,8.86c.967,2.9,3.215,5.828,6.273,5.907s5.489-2.614,7.109-5.227c5.619-9.122,8.285-19.707,10.638-30.162s4.548-21.092,9.279-30.685,12.52-18.3,22.739-21.484,22.87.235,28.071,9.618,1.908,21.118-2.483,30.92a165.314,165.314,0,0,1-25.483,40.277,13.592,13.592,0,0,0-4.077,7.4c-.34,5.227,5.436,8.73,10.612,9.069,5.828.392,11.552-1.673,17.355-2.457s12.546,0,16.048,4.809c4.835,6.534.627,15.682-4.182,22.347A143.2,143.2,0,0,1,197.5,512.379c-4.809,3.293-9.984,6.4-13.33,11.213s-4.286,11.866-.392,16.231,10.951,4.26,16.257,1.8,9.54-6.717,14.349-10.063c8.991-6.247,22.007-8.86,30.554-2.013a23.026,23.026,0,0,1,7.58,19.341,53.659,53.659,0,0,1-6.43,20.465,143.413,143.413,0,0,1-48.771,56.455c-20.909,13.826-41.819,21.432-66.91,19.054" transform="translate(-354.36 -258.778)" fill="#5857e9"/>
  </g>
</svg>
