<svg xmlns="http://www.w3.org/2000/svg" width="89.697" height="47.531"><path d="M25.63 45.027h57.417a4.03 4.03 0 0 0 4.042-4.807l-3.777-17.387a4.1 4.1 0 0 0-4.041-3.169H21.857c-1.22-.027-2.387.5-3.173 1.435s-1.105 2.175-.868 3.372l3.776 17.387a4.1 4.1 0 0 0 4.039 3.169z" fill="#ff5d89" stroke="#ff5d89" stroke-miterlimit="10" stroke-width="5"/><path d="M.274 17.608L0 8.908q0-.9.026-2.037.026-1.137.065-2.05.04-.914.072-2.076Q.195 1.582.195.628A.32.32 0 0 1 .372.294.92.92 0 0 1 .816.25a2.16 2.16 0 0 0 .607-.04h9.352a6.44 6.44 0 0 1 1.593.2 5.94 5.94 0 0 1 1.562.653 5.7 5.7 0 0 1 1.345 1.1 4.98 4.98 0 0 1 .94 1.614c.246.682.368 1.403.36 2.128.018.953-.207 1.894-.653 2.736-.5.872-1.165 1.637-1.96 2.253a9.48 9.48 0 0 1-3.866.966h-.418c-.344.067-.694.1-1.045.1H7.6a.29.29 0 0 0-.13.027q0 3.423.107 5.17a.48.48 0 0 1-.281.353c-.24.075-.5.106-.74.092zm6.53-9.98v.237a1.33 1.33 0 0 0 .176.085c.107.048.164.08.164.1v.026c-.018 0-.026-.018-.026-.054.017.018.07.027.157.027a3.52 3.52 0 0 0 1.965-.523 1.79 1.79 0 0 0 .8-1.62 1.96 1.96 0 0 0-.17-.849 1.5 1.5 0 0 0-.412-.542c-.195-.14-.417-.24-.653-.287a5.04 5.04 0 0 0-.749-.124l-.863-.026a1.42 1.42 0 0 1-.1.09l-.13.118v1.36c-.092.657-.145 1.32-.16 1.982zm15.023 7.264a6.71 6.71 0 0 0-.176.79l-.157.77a2.46 2.46 0 0 1-.241.588 1.01 1.01 0 0 1-.517.451 2.31 2.31 0 0 1-.895.144H14.2v-.444q.7-2.076 2.018-6.374 1.327-4.298 2.057-6.5v.026q.444-1.266 1.307-3.97a.51.51 0 0 1 .039-.065c.062-.108.136-.2.222-.3l7.053.053q1.8 0 1.985.314v.34a3.58 3.58 0 0 0 .289.6q1.265 3.878 1.853 5.642v.157a4.09 4.09 0 0 0 .236.862q.183.482.438 1.038a9.2 9.2 0 0 1 .358.869l.523 1.882q.457 1.515 1.345 4.05v.235a2.32 2.32 0 0 0 .2.5 3.42 3.42 0 0 1 .2.443c0 .245-.05.4-.15.47a1.1 1.1 0 0 1-.582.1h-6.057l-.287-.04a2 2 0 0 1-.2-.054c-.075-.016-.145-.053-.2-.107a.3.3 0 0 1-.072-.168l-.5-1.986c-.036-.166-.07-.258-.107-.28a.84.84 0 0 0-.313-.032zm3.5-6.217q-.08-.365-.23-1.182-.15-.817-.294-1.424-.143-.607-.313-1.13v-.626c-.062-.175-.194-.317-.365-.392v.025q-.314.067-.627 1.75v.627a.36.36 0 0 1-.118.17c-.062.054-.092.083-.092.1q-.43 1.908-.7 3.083a2.83 2.83 0 0 1-.065.457 3.47 3.47 0 0 0-.066.38h3.24a5.83 5.83 0 0 0-.234-1.228v-.283a1.32 1.32 0 0 0-.072-.15.4.4 0 0 1-.063-.168zM52.842.158c.105.035.186.186.243.45.064.33.098.664.1 1q.013.6 0 1.15L53.132 4.6q-.027.524-.027 1.463v1.384q0 .914.027 2.507.027 1.593.025 2.35v4.754q-.053.445-.73.445h-7.314q-.235-.054-.6-1.1-.25-.693-.83-2.272-.58-1.58-1-2.776-.418-1.2-.757-2.32h0q-.038.864-.078 2.568-.04 1.704-.08 2.553v2.664a1.12 1.12 0 0 1-.092.542.77.77 0 0 1-.48.242h-5.383l-.575-.574q.065-2.17.1-6.792.035-4.623.107-6.844V.574q.13-.47.313-.47v.054q.888 0 2.8-.054Q40.448.05 41.4.05h2.193a.1.1 0 0 1 .039.012c.157.06.244.13.26.2l.013.092q.47 1.266.954 2.625.483 1.36 1.15 3.285.666 1.926.927 2.658V7q.26-4.6.26-6.53 0-.2.287-.26a5.3 5.3 0 0 1 .889-.053zM71.06 5.35a5 5 0 0 0-1.689-.3c-.93-.006-1.85.185-2.7.56l-.25-.25a1.63 1.63 0 0 0-2.293-.013l-.14.138a1.63 1.63 0 0 0-.047 2.258 14.69 14.69 0 0 0-2.4 4.4q-.242.663-.423 1.337c-.362 1.327-.524 2.7-.48 4.075h-6.23V.2a1.15 1.15 0 0 1 .145.013 1.38 1.38 0 0 0 .143.012q.56 0 1.706-.117Q57.547-.01 58.12-.01h3.343a20 20 0 0 1 3.221.234 10.76 10.76 0 0 1 2.742.836 6.63 6.63 0 0 1 2.188 1.567 7.02 7.02 0 0 1 1.391 2.508c.015.068.037.136.057.204zm16.994 11.187a2.34 2.34 0 0 1-.2-.5v-.234q-.888-2.533-1.345-4.05l-.523-1.88a8.66 8.66 0 0 0-.36-.87q-.255-.553-.437-1.038c-.1-.277-.2-.566-.235-.86v-.158q-.6-1.764-1.854-5.64c-.114-.2-.2-.392-.3-.6v-.34q-.18-.315-1.983-.314L73.775 0c-.086.1-.16.2-.222.3a.41.41 0 0 0-.04.065q-.86 2.7-1.307 3.97V4.3l-.3.9a1.63 1.63 0 0 1 2.14.147l.126.125c.622.623.64 1.626.038 2.27a11.21 11.21 0 0 1 2.187 7.134h.277l1.5-1.87a2.11 2.11 0 0 1 2.96-.334l.078.064a2.1 2.1 0 0 1 .335 2.959l-.926 1.16.08.322a.29.29 0 0 0 .071.169c.056.053.125.1.2.107l.2.053c.04.01.138.02.287.04h6.06a1.11 1.11 0 0 0 .582-.1c.1-.07.15-.227.15-.47a3.11 3.11 0 0 0-.189-.444zm-11.662-6.034a3.81 3.81 0 0 1 .064-.379 2.72 2.72 0 0 0 .066-.458q.274-1.175.7-3.082c0-.008.032-.04.092-.1.056-.044.097-.103.12-.17v-.626q.313-1.685.627-1.75V3.92a.67.67 0 0 1 .365.392v.626l.313 1.13.295 1.424.228 1.183c.008.058.027.114.057.164a1.24 1.24 0 0 1 .073.149v.288a5.8 5.8 0 0 1 .235 1.228zm-6 3.552a1.05 1.05 0 0 1 1.541 0l.367.477c.342.447-.086 1.006-.77 1.006H70.8c-.685 0-1.113-.56-.77-1.006l.184-.24zm-4.095.06l.624.473a1.09 1.09 0 0 0 1.663-.438l.72-1.673a1.27 1.27 0 0 0-.382-1.5l-.126-.1a1.27 1.27 0 0 0-1.67.083l-.963.926a1.47 1.47 0 0 0 .133 2.23zm7.7.1l.557-.487c.667-.583.77-1.582.24-2.3l-.28-.375c-.18-.24-.452-.4-.75-.417a1.05 1.05 0 0 0-.812.28l-.125.118a1.38 1.38 0 0 0-.384 1.4l.42 1.444a.7.7 0 0 0 1.135.333zM30.13 32.462q.234-.954.437-2.156.203-1.202.334-2.14.127-.94.306-2.305.18-1.365.295-2.162h7.52l.086.672.085.686.17 1.392.078.7.084.692.092.68.086.667.56 3.7 1.06-8.988a.25.25 0 0 1 .1-.13.57.57 0 0 1 .2-.084l.25-.054a2.43 2.43 0 0 1 .32-.026l.32-.007h.642q.417 0 1.2.026l1.2.026.274-.012.353-.014a1.14 1.14 0 0 1 .576.078c.043 0 .12 0 .228-.012a2.1 2.1 0 0 1 .241-.013c.067-.001.134.004.2.013a.61.61 0 0 1 .176.058.77.77 0 0 1 .161.111.62.62 0 0 1 .13.183.95.95 0 0 1 .085.288l-3.8 16.666h-7.64l-1.45-8.38-.9 6.923-.072.428-.092.48-.1.353a.67.67 0 0 1-.2.314.46.46 0 0 1-.287.092 38.91 38.91 0 0 1-1.437-.04l-1.437-.04q-.836 0-2.193.04-1.357.04-1.985.04h-.418l-3.47-16.245.08-.927v-.2a.52.52 0 0 1 .013-.079c.005-.03.018-.06.04-.085a.94.94 0 0 1 .079-.065.44.44 0 0 1 .13-.065 4.28 4.28 0 0 0 .549.054h.862c.174 0 .26-.018.26-.054h.444c.037 0 .1 0 .2-.013s.177-.013.254-.013h.366q.144 0 .418-.013l.417-.013h.863v.053h.86a1.28 1.28 0 0 1 .633.125.56.56 0 0 1 .23.5zM49.343 24.8a3.34 3.34 0 0 1 .065-.914c.084-.125.228-.195.378-.183h.315a1.03 1.03 0 0 1 .287.026h.678q1.318 0 4-.066 2.672-.066 4-.064h3.475q.338.038.338.34v4.36a.4.4 0 0 1-.044.136c-.015.03-.033.055-.055.08a1.17 1.17 0 0 1-.123.09 1.19 1.19 0 0 0-.144.11h-6.06v1.62h.574q.76 0 2.3-.053 1.552-.053 2.393-.054a.67.67 0 0 1 .5.144.59.59 0 0 1 .13.4 1.69 1.69 0 0 1-.026.222c-.015.073-.024.147-.027.222v.5a3.12 3.12 0 0 0 .016.214 2.95 2.95 0 0 1 .012.28v.366l.026.575.026.5v.34a1.17 1.17 0 0 1-.11.21c-.032.038-.08.058-.13.054v-.026q-.48 0-1.664.065-1.184.065-1.888.065h-2.1v1.672l.313.013c.14.013.242.013.312.013q.6 0 1.738-.04l1.656-.04H62.2a1.51 1.51 0 0 1 .862.157.83.83 0 0 1 .107.157v4.18a.7.7 0 0 1-.107.418.48.48 0 0 1-.393.156H49.74l-.4-.34zM78.5 31.904a2.02 2.02 0 0 1 1.228.417 3.16 3.16 0 0 1 .9 1.053 6.4 6.4 0 0 1 .529 1.318 4.66 4.66 0 0 1-.72 4.06 4.7 4.7 0 0 1-2.28 1.692l-1.1.653H64.73v-17.55h9.926a7.8 7.8 0 0 1 4.676 1.254c.52.35.922.852 1.15 1.437a5.11 5.11 0 0 1 .393 1.986 3.59 3.59 0 0 1-.582 2.14c-.5.628-1.1 1.152-1.792 1.542zm-6.765 1.67l-.524 3.252c0 .034.063.076.184.124.1.043.206.076.313.1h1.018c.485-.017.956-.164 1.365-.424.366-.285.56-.738.516-1.2a2.21 2.21 0 0 0-.065-.549 1.98 1.98 0 0 0-.161-.431 1.13 1.13 0 0 0-.267-.327 3 3 0 0 0-.32-.235 1.46 1.46 0 0 0-.4-.15l-.412-.1a3.66 3.66 0 0 0-.43-.053l-.4-.02zm-.263-5.747c.073.45.107.903.1 1.358v.262c0 .044-.005.087-.013.13a.98.98 0 0 0-.013.13c0 .035 0 .112.013.23a2.52 2.52 0 0 1 .013.294v.418a.17.17 0 0 0 .108.182l.534-.013.567-.053a1.8 1.8 0 0 0 .608-.157c.17-.087.33-.2.48-.308a1.13 1.13 0 0 0 .374-.515 2.16 2.16 0 0 0 .125-.758c.013-.36-.13-.708-.393-.954-.247-.237-.554-.402-.888-.477a5.17 5.17 0 0 0-1.123-.111.89.89 0 0 1-.287.027v-.027c-.14.052-.23.193-.213.342z" fill="#fff"/></svg>