<svg xmlns="http://www.w3.org/2000/svg" width="830.969" height="841.777" fill="#fbecf3"><path d="M576.69-4.47c-39.024 0-78.093 1.475-116.123 4.386-36.892 2.823-73.254 7.03-108.074 12.5-34.015 5.346-66.888 11.95-97.707 19.63-30.364 7.566-58.966 16.233-85.014 25.76-25.904 9.475-49.45 19.86-69.982 30.87-20.6 11.046-38.294 22.787-52.594 34.9-14.43 12.222-25.5 24.905-32.9 37.695-3.724 6.435-6.563 12.988-8.44 19.476C3.96 187.297 3 193.942 3 200.5c0 4.922.63 9.917 1.874 14.844 1.233 4.888 3.1 9.83 5.548 14.688 4.88 9.683 12.18 19.3 21.702 28.584 9.484 9.248 21.228 18.22 34.904 26.672 13.703 8.467 29.426 16.458 46.732 23.75 17.485 7.368 36.703 14.07 57.12 19.923 20.808 5.965 43.036 11.094 66.065 15.246 23.655 4.265 48.41 7.543 73.58 9.744 26.012 2.275 52.817 3.428 79.67 3.428 33.398 0 67.375-1.782 101.004-5.296 3.375-3.335 9.52-9.725 10.145-10.375L775.766 26.172c-10.56-2.49-37.43-8.658-69.507-14.763-24.242-4.614-46.67-8.3-66.66-10.926-24.927-3.286-46.093-4.952-62.9-4.952m0-3c74.314 0 204.6 31.873 204.6 31.873L761.992 46.6 503.557 343.734 492.55 354.96c-34.972 3.692-69.233 5.42-102.357 5.42C170.19 360.38 0 284.135 0 200.5 0 89.767 257.744-7.47 576.69-7.47z" transform="matrix(.75471 -.656059 .656059 .75471 4.9 569.795)"/><circle cx="146.932" cy="728.5" r="9.5"/><circle cx="163.932" cy="640.5" r="13.5"/><circle cx="476.932" cy="51.5" r="39.5"/><circle cx="400.932" cy="9.5" r="9.5"/></svg>