<svg xmlns="http://www.w3.org/2000/svg" width="31.801" height="31.807" fill="#fff" xmlns:v="https://vecta.io/nano"><path d="M31.72 9.35a11.62 11.62 0 0 0-.739-3.859A8.15 8.15 0 0 0 26.326.839 11.65 11.65 0 0 0 22.468.1L15.906 0 9.35.093a11.63 11.63 0 0 0-3.86.74 7.76 7.76 0 0 0-2.821 1.839A7.83 7.83 0 0 0 .838 5.487C.375 6.722.125 8.026.1 9.345L0 15.907l.093 6.555a11.62 11.62 0 0 0 .74 3.859c.828 2.137 2.517 3.826 4.654 4.654 1.235.463 2.54.713 3.86.74l6.555.093 6.555-.093a11.62 11.62 0 0 0 3.858-.739c2.138-.827 3.827-2.516 4.654-4.654a11.66 11.66 0 0 0 .739-3.859l.093-6.555-.08-6.555zm-2.87 12.987a8.72 8.72 0 0 1-.547 2.951 5.28 5.28 0 0 1-3.02 3.02 8.75 8.75 0 0 1-2.951.547l-6.425.093c-4.244 0-4.753-.018-6.425-.093a8.69 8.69 0 0 1-2.95-.547c-.7-.253-1.315-.66-1.827-1.187-.524-.512-.928-1.134-1.182-1.82a8.75 8.75 0 0 1-.547-2.951l-.093-6.425.093-6.425a8.69 8.69 0 0 1 .547-2.95c.253-.694.66-1.32 1.193-1.832a4.94 4.94 0 0 1 1.826-1.187 8.77 8.77 0 0 1 2.95-.547l6.425-.093 6.425.093a8.72 8.72 0 0 1 2.951.547 4.89 4.89 0 0 1 1.827 1.187c.527.513.932 1.137 1.187 1.827.35.945.533 1.943.543 2.95l.093 6.425-.093 6.42zm-12.943-14.6a8.17 8.17 0 1 0 8.171 8.171c-.001-4.512-3.66-8.17-8.17-8.17zm0 13.47a5.3 5.3 0 1 1 3.748-1.552 5.3 5.3 0 0 1-3.748 1.552zm0 0"/><path d="M26.308 7.412a1.91 1.91 0 0 1-3.257 1.351A1.91 1.91 0 0 1 24.4 5.505a1.91 1.91 0 0 1 1.908 1.907zm0 0"/></svg>