<svg xmlns="http://www.w3.org/2000/svg" width="32.132" height="28.12" xmlns:v="https://vecta.io/nano"><path d="M.554 13.655l7.858 3.916c.303.15.66.14.953-.03l6.994-4.066-4.233 3.75a1 1 0 0 0-.339.752v9.138c.004.43.28.81.69.946s.858-.004 1.118-.346l3.4-4.516 8.4 4.784a1 1 0 0 0 1.481-.675L32.11 1.203A1 1 0 0 0 30.761.07L.637 11.82a1 1 0 0 0-.083 1.834zM29.782 2.61l-4.6 22.944-7.96-4.533c-.44-.25-.996-.134-1.3.27l-2.123 2.82V18.43L25.244 8.286a1 1 0 0 0-1.17-1.62l-15.25 8.866L3.48 12.87z" fill="#fff"/></svg>