<svg xmlns="http://www.w3.org/2000/svg" width="13.256" height="9.114" fill="#233e63" xmlns:v="https://vecta.io/nano"><path d="M11.806 0H1.45A1.45 1.45 0 0 0 0 1.45v6.214a1.45 1.45 0 0 0 1.45 1.45h10.356a1.45 1.45 0 0 0 1.45-1.45V1.45A1.45 1.45 0 0 0 11.806 0zM1.45.83h10.356a.62.62 0 0 1 .621.621v.83H.83v-.83a.62.62 0 0 1 .62-.622zm10.357 7.457H1.45a.62.62 0 0 1-.621-.621v-4.56h11.6v4.557a.62.62 0 0 1-.623.621zM2.9 7.043h-.414c-.23 0-.414-.185-.414-.414v-.414c0-.23.185-.414.414-.414H2.9c.23 0 .414.185.414.414v.414c0 .23-.185.414-.414.414z"/></svg>