<svg xmlns="http://www.w3.org/2000/svg" width="32.132" height="32.132" fill="#fff" xmlns:v="https://vecta.io/nano"><path d="M23.094 32.132a8.95 8.95 0 0 1-3.071-.549A32.75 32.75 0 0 1 8.13 24 32.75 32.75 0 0 1 .549 12.11 8.89 8.89 0 0 1 .1 7.742C.523 4.906 2.257 2.434 4.78 1.07 6.096.36 7.57-.007 9.064 0a1 1 0 0 1 .982.794l1.576 7.355a1 1 0 0 1-.272.92l-2.693 2.693A26.43 26.43 0 0 0 20.37 23.475l2.693-2.693a1 1 0 0 1 .92-.272l7.355 1.576a1 1 0 0 1 .794.982c.007 1.495-.36 2.968-1.07 4.284-1.363 2.524-3.834 4.26-6.67 4.684a8.93 8.93 0 0 1-1.3.1zM8.26 2.052c-2.137.243-4.045 1.45-5.18 3.277s-1.372 4.07-.644 6.095c3.076 8.502 9.77 15.198 18.272 18.276a7 7 0 0 0 6.095-.645 7.06 7.06 0 0 0 3.277-5.18L24.1 22.6l-2.815 2.8a1 1 0 0 1-1.137.2A28.43 28.43 0 0 1 6.532 11.985a1 1 0 0 1 .2-1.137l2.812-2.813zM31.127 17.07a1 1 0 0 1-1-1C30.12 8.307 23.83 2.016 16.067 2c-.554 0-1.004-.45-1.004-1.004S15.512 0 16.066 0a16.07 16.07 0 0 1 16.065 16.065 1 1 0 0 1-1.004 1.004zm-4.017 0a1 1 0 0 1-1-1c-.006-5.543-4.498-10.035-10.04-10.04-.554 0-1.004-.45-1.004-1.004s.45-1.004 1.004-1.004a12.07 12.07 0 0 1 12.05 12.05 1 1 0 0 1-1.008 1zm-4.015 0a1 1 0 0 1-1-1c-.004-3.325-2.7-6.02-6.024-6.024-.554 0-1.004-.45-1.004-1.004s.45-1.004 1.004-1.004c4.434.005 8.028 3.6 8.033 8.033a1 1 0 0 1-1.009.999z"/></svg>