<svg xmlns="http://www.w3.org/2000/svg" width="9.508" height="15.013" fill="#233e63"><path d="M8.257 0H1.25A1.25 1.25 0 0 0 0 1.25v12.5c.001.7.56 1.25 1.25 1.25h7.006c.7-.001 1.25-.56 1.25-1.25V1.25A1.25 1.25 0 0 0 8.257 0zm.75 13.762a.75.75 0 0 1-.751.751H1.25a.75.75 0 0 1-.751-.751v-1.25h8.507zm0-1.752H.5V2h8.507zm0-10.5H.5v-.25A.75.75 0 0 1 1.251.5h7.006a.75.75 0 0 1 .751.751zM4.754 12.76a.75.75 0 1 0 .751.751.75.75 0 0 0-.751-.751zm0 1a.25.25 0 1 1 0-.5.25.25 0 1 1 0 .5zm.25-13h-.5a.25.25 0 1 0 0 .5h.5a.25.25 0 1 0 0-.5z"/></svg>